<svg width="27" height="27" viewBox="0 0 27 27" fill="none" xmlns="http://www.w3.org/2000/svg">
<path d="M4.04999 8.0998C4.04999 7.02568 4.47668 5.99554 5.23621 5.23602C5.99573 4.4765 7.02586 4.0498 8.09999 4.0498H18.9C19.9741 4.0498 21.0042 4.4765 21.7638 5.23602C22.5233 5.99554 22.95 7.02568 22.95 8.0998V18.8998C22.95 19.9739 22.5233 21.0041 21.7638 21.7636C21.0042 22.5231 19.9741 22.9498 18.9 22.9498H8.09999C7.02586 22.9498 5.99573 22.5231 5.23621 21.7636C4.47668 21.0041 4.04999 19.9739 4.04999 18.8998V8.0998ZM8.09999 5.3998C7.3839 5.3998 6.69715 5.68427 6.1908 6.19062C5.68445 6.69696 5.39999 7.38372 5.39999 8.0998V18.8998C5.39999 19.6159 5.68445 20.3026 6.1908 20.809C6.69715 21.3153 7.3839 21.5998 8.09999 21.5998H18.9C19.6161 21.5998 20.3028 21.3153 20.8092 20.809C21.3155 20.3026 21.6 19.6159 21.6 18.8998V8.0998C21.6 7.38372 21.3155 6.69696 20.8092 6.19062C20.3028 5.68427 19.6161 5.3998 18.9 5.3998H8.09999Z" fill="#FF1D1D"/>
</svg>
