<svg width="27" height="27" viewBox="0 0 27 27" fill="none" xmlns="http://www.w3.org/2000/svg">
<path d="M8.09999 4.0498C7.02586 4.0498 5.99573 4.4765 5.23621 5.23602C4.47668 5.99554 4.04999 7.02568 4.04999 8.0998V18.8998C4.04999 19.9739 4.47668 21.0041 5.23621 21.7636C5.99573 22.5231 7.02586 22.9498 8.09999 22.9498H18.9C19.9741 22.9498 21.0042 22.5231 21.7638 21.7636C22.5233 21.0041 22.95 19.9739 22.95 18.8998V8.0998C22.95 7.02568 22.5233 5.99554 21.7638 5.23602C21.0042 4.4765 19.9741 4.0498 18.9 4.0498H8.09999ZM5.39999 8.0998C5.39999 7.38372 5.68445 6.69696 6.1908 6.19062C6.69715 5.68427 7.3839 5.3998 8.09999 5.3998H18.9C19.6161 5.3998 20.3028 5.68427 20.8092 6.19062C21.3155 6.69696 21.6 7.38372 21.6 8.0998V18.8998C21.6 19.6159 21.3155 20.3026 20.8092 20.809C20.3028 21.3153 19.6161 21.5998 18.9 21.5998H8.09999C7.3839 21.5998 6.69715 21.3153 6.1908 20.809C5.68445 20.3026 5.39999 19.6159 5.39999 18.8998V8.0998ZM18.7029 10.6027C18.8296 10.476 18.9008 10.3041 18.9008 10.1248C18.9008 9.94556 18.8296 9.77365 18.7029 9.6469C18.5761 9.52016 18.4042 9.44895 18.225 9.44895C18.0457 9.44895 17.8738 9.52016 17.7471 9.6469L11.475 15.9204L9.25289 13.6969C9.12614 13.5702 8.95424 13.499 8.77499 13.499C8.59574 13.499 8.42383 13.5702 8.29709 13.6969C8.17034 13.8237 8.09913 13.9956 8.09913 14.1748C8.09913 14.3541 8.17034 14.526 8.29709 14.6527L10.9971 17.3527C11.0598 17.4156 11.1343 17.4654 11.2163 17.4995C11.2983 17.5335 11.3862 17.551 11.475 17.551C11.5638 17.551 11.6517 17.5335 11.7337 17.4995C11.8157 17.4654 11.8902 17.4156 11.9529 17.3527L18.7029 10.6027Z" fill="#32B768"/>
</svg>
